<svg xmlns="http://www.w3.org/2000/svg" xmlns:svg="http://www.w3.org/2000/svg" id="svg6" version="1.1" viewBox="0 0 24 24"><metadata id="metadata10"/><defs id="defs3051"><style id="current-color-scheme" type="text/css">.ColorScheme-Text{color:#f2f2f2}</style></defs><path id="path4" fill="currentColor" fill-opacity="1" stroke="#000" stroke-dasharray="none" stroke-miterlimit="4" stroke-opacity="1" stroke-width=".1" d="m 5.2372881,1.3559322 v 1 1 h 1 v -1 h 3.9999999 v 1 h 1 v -1 -1 z m -4,3 v 1 H 15.237288 v -1 z m 2,2 V 17.355932 h 1 8.9999999 v -1 -9.9999998 h -1 V 16.355932 H 4.2372881 V 6.3559322 Z" class="ColorScheme-Text" color="#f2f2f2"/><path id="path4-6" fill="currentColor" fill-opacity="1" stroke="#000" stroke-dasharray="none" stroke-miterlimit="4" stroke-opacity="1" stroke-width=".1" d="m 9.2372876,3.3559322 v 1 1 h 1.0000004 v -1 h 4 v 1 h 1 v -1 -1 z m -4,3 v 1 H 19.237288 v -1 z m 2,2 V 19.355932 h 1 9.0000004 v -1 -9.9999998 h -1 V 18.355932 H 8.2372876 V 8.3559322 Z" class="ColorScheme-Text" color="#f2f2f2"/><path id="path4-7" fill="currentColor" fill-opacity="1" stroke="#000" stroke-dasharray="none" stroke-miterlimit="4" stroke-opacity="1" stroke-width=".1" d="m 13.881356,6.8474576 v 1 1 h 1 v -1 h 4 v 1 h 1 v -1 -1 z m -4.0000001,3 V 10.847458 H 23.881356 V 9.8474576 Z m 2.0000001,2.0000004 v 11 h 1 9 v -1 -10 h -1 v 10 h -8 v -10 z" class="ColorScheme-Text" color="#f2f2f2"/></svg>