<svg xmlns="http://www.w3.org/2000/svg" xmlns:svg="http://www.w3.org/2000/svg" id="svg4" fill="#2196F3" version="1.1" viewBox="0 0 48 48"><metadata id="metadata10"/><defs id="defs8"><style id="current-color-scheme" type="text/css">.ColorScheme-Text{color:#f2f2f2}</style></defs><path id="path4" fill="#f2f2f2" fill-opacity="1" stroke="#000" stroke-dasharray="none" stroke-miterlimit="4" stroke-opacity="1" stroke-width=".2" d="m 17.465639,17.651852 -4.86717,5.030969 -5.0309687,-4.86717 -0.69531,0.71871 5.0309687,4.86717 -4.8671697,5.030969 0.71871,0.69531 4.8671697,-5.030969 5.030969,4.86717 0.69531,-0.71871 -5.030969,-4.86717 4.86717,-5.030969 z" class="ColorScheme-Text" color="#f2f2f2"/><path id="path4-3" fill="#f2f2f2" fill-opacity="1" stroke="#000" stroke-dasharray="none" stroke-miterlimit="4" stroke-opacity="1" stroke-width=".2" d="m 22.550385,17.448461 -4.86717,5.030969 -5.030969,-4.86717 -0.69531,0.71871 5.030969,4.86717 -4.86717,5.030969 0.71871,0.69531 4.86717,-5.030969 5.030969,4.86717 0.69531,-0.71871 -5.030969,-4.86717 4.86717,-5.030969 z" class="ColorScheme-Text" color="#f2f2f2"/><path id="path4-6" fill="#f2f2f2" fill-opacity="1" stroke="#000" stroke-dasharray="none" stroke-miterlimit="4" stroke-opacity="1" stroke-width=".2" d="m 27.363778,17.488053 -4.86717,5.030969 -5.030969,-4.86717 -0.69531,0.71871 5.030969,4.86717 -4.86717,5.030969 0.71871,0.69531 4.86717,-5.030969 5.030969,4.86717 0.69531,-0.71871 -5.030969,-4.86717 4.86717,-5.030969 z" class="ColorScheme-Text" color="#f2f2f2"/></svg>