<svg xmlns="http://www.w3.org/2000/svg" xmlns:svg="http://www.w3.org/2000/svg" id="svg5" version="1.1" viewBox="0 0 32 32"><metadata id="metadata9"/><defs id="defs3051"><style id="current-color-scheme" type="text/css">.ColorScheme-Text{color:#f2f2f2}</style><style id="current-color-scheme-6" type="text/css">.ColorScheme-Text{color:#4d4d4d}</style></defs><path id="path55" fill="#4d4d4d" fill-opacity="1" stroke="none" d="M 16 4 A 12 12 0 0 0 4 16 A 12 12 0 0 0 16 28 A 12 12 0 0 0 28 16 A 12 12 0 0 0 16 4 z M 16 5 A 11 11 0 0 1 27 16 A 11 11 0 0 1 16 27 A 11 11 0 0 1 5 16 A 11 11 0 0 1 16 5 z M 15 9 L 15 11 L 17 11 L 17 9 L 15 9 z M 15 13 L 15 23 L 17 23 L 17 13 L 15 13 z" class="ColorScheme-Text"/></svg>