<svg xmlns="http://www.w3.org/2000/svg" xmlns:svg="http://www.w3.org/2000/svg" id="svg6" version="1.1" viewBox="0 0 22 22"><metadata id="metadata10"/><defs id="defs3051"><style id="current-color-scheme" type="text/css">.ColorScheme-Text{color:#f2f2f2}</style><style id="current-color-scheme-6" type="text/css">.ColorScheme-Text{color:#f2f2f2}</style></defs><path id="path4" fill="#4d4d4d" fill-opacity="1" stroke="none" d="m 11,3 c -4.432,0 -8,3.568 -8,8 0,4.432 3.568,8 8,8 0.339398,0 0.672624,-0.02441 1,-0.06641 V 17.925781 C 11.67354,17.973781 11.340107,18 11,18 7.122,18 4,14.878 4,11 4,7.122 7.122,4 11,4 c 3.878,0 7,3.122 7,7 0,0.6962 -0.105435,1.3662 -0.292969,2 h 1.033203 C 18.903948,12.3603 19,11.6921 19,11 19,6.568 15.432,3 11,3 Z m 4,11 v 1 h 4 v -1 z m -1,2 v 1 h 5 v -1 z m -1,2 v 1 h 1 5 v -1 h -5 z" class="ColorScheme-Text" color="#f2f2f2"/><path id="path4489" fill="#4d4d4d" fill-opacity="1" stroke="none" stroke-width=".493" d="M 10.978531,7.2288132 V 10.574576 H 7.4152541 v 0.477966 h 3.5632769 v 3.345763 h 0.509039 v -3.345763 h 3.563277 V 10.574576 H 11.48757 V 7.2288132 Z" class="ColorScheme-Text" color="#f2f2f2"/></svg>