<svg xmlns="http://www.w3.org/2000/svg" xmlns:svg="http://www.w3.org/2000/svg" id="svg6" version="1.1" viewBox="0 0 24 24"><metadata id="metadata10"/><defs id="defs3051"><style id="current-color-scheme" type="text/css">.ColorScheme-Text{color:#f2f2f2}</style></defs><path id="path4" fill="#4d4d4d" fill-opacity="1" stroke="none" d="m 11.898305,3.6489011 -1.875,1.875 -6.1249999,6.1249999 0.7070312,0.707031 6.1249997,-6.1249997 1.167969,-1.1679688 1.167969,1.1679688 6.125,6.1249997 0.707031,-0.707031 -6.125,-6.1249999 z" class="ColorScheme-Text" color="#f2f2f2"/><path id="path4-3" fill="#4d4d4d" fill-opacity="1" stroke="none" d="m 12,7.0363151 -1.875,1.875 L 4,15.036315 4.7070312,15.743346 10.832031,9.6183463 12,8.4503775 l 1.167969,1.1679688 6.125,6.1249997 L 20,15.036315 13.875,8.9113151 Z" class="ColorScheme-Text" color="#f2f2f2"/><path id="path4-6" fill="#4d4d4d" fill-opacity="1" stroke="none" d="m 11.898305,10.595637 -1.875,1.875 -6.125,6.125 0.7070312,0.707031 6.1249998,-6.125 1.167969,-1.167969 1.167969,1.167969 6.125,6.125 0.707031,-0.707031 -6.125,-6.125 z" class="ColorScheme-Text" color="#f2f2f2"/></svg>