<svg xmlns="http://www.w3.org/2000/svg" xmlns:svg="http://www.w3.org/2000/svg" id="svg6" version="1.1" viewBox="0 0 22 22"><metadata id="metadata10"/><defs id="defs3051"><style id="current-color-scheme" type="text/css">.ColorScheme-Text{color:#f2f2f2}</style></defs><path id="path4" fill="#4d4d4d" fill-opacity="1" stroke="none" d="m 11,3 c -4.432,0 -8,3.568 -8,8 0,4.432 3.568,8 8,8 0.339398,0 0.672624,-0.02441 1,-0.06641 V 17.925781 C 11.67354,17.973781 11.340107,18 11,18 7.122,18 4,14.878 4,11 4,7.122 7.122,4 11,4 c 3.878,0 7,3.122 7,7 0,0.6962 -0.105435,1.3662 -0.292969,2 h 1.033203 C 18.903948,12.3603 19,11.6921 19,11 19,6.568 15.432,3 11,3 Z m 4,11 v 1 h 4 v -1 z m -1,2 v 1 h 5 v -1 z m -1,2 v 1 h 1 5 v -1 h -5 z" class="ColorScheme-Text" color="#f2f2f2"/><g id="g4493" fill="#4d4d4d" fill-opacity="1" transform="matrix(0.20762712,0,0,0.2276029,5.8983049,5.4190374)"><path id="path2" fill="#4d4d4d" fill-opacity="1" d="M 38,12.83 35.17,10 24,21.17 12.83,10 10,12.83 21.17,24 10,35.17 12.83,38 24,26.83 35.17,38 38,35.17 26.83,24 Z"/></g></svg>