<svg xmlns="http://www.w3.org/2000/svg" xmlns:svg="http://www.w3.org/2000/svg" id="svg2" fill="#F44336" version="1.1" viewBox="0 0 48 48"><metadata id="metadata10"/><path id="path4" stroke="#000" stroke-opacity="1" d="m 29.254237,11.406271 -2.83,-2.8299998 -11.17,11.1699998 -11.1699997,-11.1699998 -2.83,2.8299998 11.1699997,11.17 -11.1699997,11.17 2.83,2.83 11.1699997,-11.17 11.17,11.17 2.83,-2.83 -11.17,-11.17 z"/><path id="path4-3" stroke="#000" stroke-opacity="1" d="m 37.59322,11.406271 -2.83,-2.8299999 -11.17,11.1699999 -11.17,-11.1699999 -2.8299993,2.8299999 11.1699993,11.17 -11.1699993,11.17 2.8299993,2.83 11.17,-11.17 11.17,11.17 2.83,-2.83 -11.17,-11.17 z"/><path id="path4-6" stroke="#000" stroke-opacity="1" d="m 45.932203,11.406271 -2.83,-2.83 -11.17,11.170001 -11.17,-11.170001 -2.83,2.83 11.17,11.170001 -11.17,11.17 2.83,2.83 11.17,-11.17 11.17,11.17 2.83,-2.83 -11.17,-11.17 z"/></svg>