<svg xmlns="http://www.w3.org/2000/svg" xmlns:svg="http://www.w3.org/2000/svg" id="svg2" fill="#F44336" version="1.1" viewBox="0 0 48 48"><metadata id="metadata10"/><path id="path4" d="M18 32.34L9.66 24l-2.83 2.83L18 38l24-24-2.83-2.83z"/><path id="path4-3" fill="#000" fill-opacity="1" fill-rule="nonzero" stroke="none" stroke-dasharray="none" stroke-dashoffset="0" stroke-linecap="butt" stroke-linejoin="miter" stroke-miterlimit="4" stroke-opacity="1" stroke-width="1" d="M 39.365764,10.488778 18.195842,31.6587 9.8559987,23.318856 6.3188887,26.855965 18.195842,38.732918 42.902873,14.025887 39.365764,10.488778 Z m 0,1.414062 2.123047,2.123047 L 18.195842,37.318856 7.7329517,26.855965 9.8559987,24.732918 18.195842,33.072762 18.549358,32.719247 39.365764,11.90284 Z" baseline-shift="baseline" clip-rule="nonzero" color="#000" color-interpolation="sRGB" color-interpolation-filters="linearRGB" color-rendering="auto" direction="ltr" display="inline" enable-background="accumulate" font-family="sans-serif" font-size="medium" font-stretch="normal" font-style="normal" font-variant="normal" font-weight="normal" image-rendering="auto" letter-spacing="normal" opacity="1" overflow="visible" shape-rendering="auto" text-anchor="start" text-decoration="none" text-rendering="auto" visibility="visible" word-spacing="normal" writing-mode="lr-tb" style="line-height:normal;text-indent:0;text-align:start;text-decoration-line:none;text-decoration-style:solid;text-decoration-color:#000;text-transform:none;block-progression:tb;white-space:normal;isolation:auto;mix-blend-mode:normal;solid-color:#000;solid-opacity:1"/><path id="path4-5" d="m 18.202678,41.491864 -8.3399994,-8.34 -2.83,2.83 11.1699994,11.17 24,-24 -2.83,-2.83 z"/><path id="path4-3-3" fill="#000" fill-opacity="1" fill-rule="nonzero" stroke="none" stroke-dasharray="none" stroke-dashoffset="0" stroke-linecap="butt" stroke-linejoin="miter" stroke-miterlimit="4" stroke-opacity="1" stroke-width="1" d="M 39.568442,19.640642 18.39852,40.810564 10.058677,32.47072 6.5215673,36.007829 18.39852,47.884782 43.105551,23.177751 39.568442,19.640642 Z m 0,1.414062 2.123047,2.123047 L 18.39852,46.47072 7.9356303,36.007829 10.058677,33.884782 18.39852,42.224626 18.752036,41.871111 39.568442,21.054704 Z" baseline-shift="baseline" clip-rule="nonzero" color="#000" color-interpolation="sRGB" color-interpolation-filters="linearRGB" color-rendering="auto" direction="ltr" display="inline" enable-background="accumulate" font-family="sans-serif" font-size="medium" font-stretch="normal" font-style="normal" font-variant="normal" font-weight="normal" image-rendering="auto" letter-spacing="normal" opacity="1" overflow="visible" shape-rendering="auto" text-anchor="start" text-decoration="none" text-rendering="auto" visibility="visible" word-spacing="normal" writing-mode="lr-tb" style="line-height:normal;text-indent:0;text-align:start;text-decoration-line:none;text-decoration-style:solid;text-decoration-color:#000;text-transform:none;block-progression:tb;white-space:normal;isolation:auto;mix-blend-mode:normal;solid-color:#000;solid-opacity:1"/><path id="path4-56" d="m 18.202678,22.16983 -8.3399994,-8.34 -2.83,2.83 11.1699994,11.17 24,-24 -2.83,-2.83000001 z"/><path id="path4-3-2" fill="#000" fill-opacity="1" fill-rule="nonzero" stroke="none" stroke-dasharray="none" stroke-dashoffset="0" stroke-linecap="butt" stroke-linejoin="miter" stroke-miterlimit="4" stroke-opacity="1" stroke-width="1" d="M 39.568442,0.31860799 18.39852,21.48853 10.058677,13.148686 6.5215673,16.685795 18.39852,28.562748 43.105551,3.855717 39.568442,0.31860799 Z m 0,1.41406201 2.123047,2.123047 L 18.39852,27.148686 7.9356303,16.685795 10.058677,14.562748 18.39852,22.902592 18.752036,22.549077 39.568442,1.73267 Z" baseline-shift="baseline" clip-rule="nonzero" color="#000" color-interpolation="sRGB" color-interpolation-filters="linearRGB" color-rendering="auto" direction="ltr" display="inline" enable-background="accumulate" font-family="sans-serif" font-size="medium" font-stretch="normal" font-style="normal" font-variant="normal" font-weight="normal" image-rendering="auto" letter-spacing="normal" opacity="1" overflow="visible" shape-rendering="auto" text-anchor="start" text-decoration="none" text-rendering="auto" visibility="visible" word-spacing="normal" writing-mode="lr-tb" style="line-height:normal;text-indent:0;text-align:start;text-decoration-line:none;text-decoration-style:solid;text-decoration-color:#000;text-transform:none;block-progression:tb;white-space:normal;isolation:auto;mix-blend-mode:normal;solid-color:#000;solid-opacity:1"/></svg>