<svg xmlns="http://www.w3.org/2000/svg" width="32" height="32" version="1"><rect width="28" height="28" x="-30" y="-30" fill="#37a0f2" rx="1.5" ry="1.5" transform="matrix(0,-1,-1,0,0,0)"/><g opacity=".2"><path d="m552-353v8.6667h2v-8.6667zm0 10.667v2h2v-2z" transform="matrix(1.5,0,0,-1.5,-814,-502.5)"/></g><path fill="#fff" d="m3.5 2c-0.831 0-1.5 0.669-1.5 1.5v1c0-0.831 0.669-1.5 1.5-1.5h25c0.831 0 1.5 0.669 1.5 1.5v-1c0-0.831-0.669-1.5-1.5-1.5h-25z" opacity=".1"/><g fill="#fff"><path d="m552-353v8.6667h2v-8.6667zm0 10.667v2h2v-2z" transform="matrix(1.5 0 0 -1.5 -814 -503.5)"/></g><path d="m2 28.5v1c0 0.831 0.669 1.5 1.5 1.5h25c0.831 0 1.5-0.669 1.5-1.5v-1c0 0.831-0.669 1.5-1.5 1.5h-25c-0.831 0-1.5-0.669-1.5-1.5z" opacity=".2"/></svg>