<svg xmlns="http://www.w3.org/2000/svg" id="svg2" width="32" height="32" version="1"><path id="path4" fill="#ccc" d="m27 28.5v-25c0-0.831-0.669-1.5-1.5-1.5h-19c-0.831 0-1.5 0.669-1.5 1.5v25c0 0.831 0.669 1.5 1.5 1.5h19c0.831 0 1.5-0.669 1.5-1.5z"/><path id="path14-3" d="m 10,11 0,1 12,0 0,-1 z m 0,3 0,1 12,0 0,-1 z m 0,3 0,1 12,0 0,-1 z m 0,3 0,1 9,0 0,-1 z" opacity=".5"/><path id="path6" fill="#fff" d="m6.5 2c-0.831 0-1.5 0.669-1.5 1.5v1c0-0.831 0.669-1.5 1.5-1.5h19c0.831 0 1.5 0.669 1.5 1.5v-1c0-0.831-0.669-1.5-1.5-1.5z" opacity=".1"/><path id="path8" d="m5 28.5v1c0 0.831 0.669 1.5 1.5 1.5h19c0.831 0 1.5-0.669 1.5-1.5v-1c0 0.831-0.669 1.5-1.5 1.5h-19c-0.831 0-1.5-0.669-1.5-1.5z" opacity=".2"/><circle id="circle12" cx="24" cy="23" r="8" fill="#db3c30" fill-opacity="1" fill-rule="evenodd"/><path id="path16" fill-rule="evenodd" d="m31.979 23.424a8 8 0 0 1 -7.979 7.576 8 8 0 0 1 -7.979 -7.424 8 8 0 0 0 -0.021 0.424 8 8 0 0 0 8 8 8 8 0 0 0 8 -8 8 8 0 0 0 -0.02148 -0.57617z" opacity=".2"/><rect id="rect4141" width="2" height="8" x="-.29" y="29.23" fill="#fff" fill-opacity="1" stroke="none" stroke-dasharray="none" stroke-linecap="round" stroke-linejoin="round" stroke-miterlimit="4" stroke-opacity="1" stroke-width="4" opacity="1" transform="matrix(0.70710678,-0.70710678,0.70710678,0.70710678,0,0)"/><rect id="rect4143" width="2" height="8" x="32.23" y="-4.71" fill="#fff" fill-opacity="1" stroke="none" stroke-dasharray="none" stroke-linecap="round" stroke-linejoin="round" stroke-miterlimit="4" stroke-opacity="1" stroke-width="4" opacity="1" transform="matrix(0.70710678,0.70710678,-0.70710678,0.70710678,0,0)"/></svg>