<svg xmlns="http://www.w3.org/2000/svg" width="32" height="32" version="1"><rect width="8" height="3" x="12" y="2" fill="#d95656"/><rect width="8" height="1" x="12" y="2" fill="#fff" opacity=".1"/><rect width="22" height="26" x="5" y="4" fill="#ba4242" rx="1.467" ry="1.529"/><rect width="26" height="6" x="3" y="3" fill="#d95656" rx="1.444" ry="1.5"/><rect width="4" height="14" x="14" y="13" opacity=".4" rx="1" ry=".7"/><rect width="4" height="14" x="8" y="13" opacity=".4" rx="1" ry=".7"/><rect width="4" height="14" x="20" y="13" opacity=".4" rx="1" ry=".7"/><path d="m5 28.471v1c0 0.847 0.6543 1.529 1.4668 1.529h19.066c0.813 0 1.467-0.682 1.467-1.529v-1c0 0.847-0.654 1.529-1.467 1.529h-19.066c-0.8127 0-1.467-0.682-1.467-1.529z" opacity=".2"/><path d="m3 7.5v1c0 0.831 0.6451 1.5 1.4453 1.5h23.11c0.8 0 1.445-0.669 1.445-1.5v-1c0 0.831-0.645 1.5-1.445 1.5h-23.11c-0.7999 0-1.445-0.669-1.445-1.5z" opacity=".2"/><path fill="#fff" d="m4.4453 3c-0.8002 0-1.4453 0.669-1.4453 1.5v1c0-0.831 0.6451-1.5 1.4453-1.5h23.11c0.8 0 1.445 0.669 1.445 1.5v-1c0-0.831-0.645-1.5-1.445-1.5h-23.11z" opacity=".2"/></svg>