<svg xmlns="http://www.w3.org/2000/svg" width="32" height="32" version="1"><rect width="28" height="28" x="-30" y="-30" fill="#e94a63" rx="1.5" ry="1.5" transform="matrix(0,-1,-1,0,0,0)"/><path fill="#fff" d="m3.5 2c-0.831 0-1.5 0.669-1.5 1.5v1c0-0.831 0.669-1.5 1.5-1.5h25c0.831 0 1.5 0.669 1.5 1.5v-1c0-0.831-0.669-1.5-1.5-1.5h-25z" opacity=".1"/><path d="m7.5 8c-0.831 0-1.5 0.669-1.5 1.5v15c0 0.831 0.669 1.5 1.5 1.5s1.5-0.669 1.5-1.5v-15c0-0.831-0.669-1.5-1.5-1.5z" opacity=".3"/><path d="m10 14.5a2.5 2.5 0 0 1 -2.5 2.5 2.5 2.5 0 0 1 -2.5 -2.5 2.5 2.5 0 0 1 2.5 -2.5 2.5 2.5 0 0 1 2.5 2.5z" opacity=".2"/><path fill="#fff" d="m10 13.5a2.5 2.5 0 0 1 -2.5 2.5 2.5 2.5 0 0 1 -2.5 -2.5 2.5 2.5 0 0 1 2.5 -2.5 2.5 2.5 0 0 1 2.5 2.5z"/><path d="m2 28.5v1c0 0.831 0.669 1.5 1.5 1.5h25c0.831 0 1.5-0.669 1.5-1.5v-1c0 0.831-0.669 1.5-1.5 1.5h-25c-0.831 0-1.5-0.669-1.5-1.5z" opacity=".2"/><path d="m23.5 8c-0.831 0-1.5 0.669-1.5 1.5v15c0 0.831 0.669 1.5 1.5 1.5s1.5-0.669 1.5-1.5v-15c0-0.831-0.669-1.5-1.5-1.5z" opacity=".3"/><path d="m26 17.5a2.5 2.5 0 0 1 -2.5 2.5 2.5 2.5 0 0 1 -2.5 -2.5 2.5 2.5 0 0 1 2.5 -2.5 2.5 2.5 0 0 1 2.5 2.5z" opacity=".2"/><path fill="#fff" d="m26 16.5a2.5 2.5 0 0 1 -2.5 2.5 2.5 2.5 0 0 1 -2.5 -2.5 2.5 2.5 0 0 1 2.5 -2.5 2.5 2.5 0 0 1 2.5 2.5z"/><path d="m15.5 8c-0.831 0-1.5 0.669-1.5 1.5v15c0 0.831 0.669 1.5 1.5 1.5s1.5-0.669 1.5-1.5v-15c0-0.831-0.669-1.5-1.5-1.5z" opacity=".3"/><path d="m18 21.5a2.5 2.5 0 0 1 -2.5 2.5 2.5 2.5 0 0 1 -2.5 -2.5 2.5 2.5 0 0 1 2.5 -2.5 2.5 2.5 0 0 1 2.5 2.5z" opacity=".2"/><path fill="#fff" d="m18 20.5a2.5 2.5 0 0 1 -2.5 2.5 2.5 2.5 0 0 1 -2.5 -2.5 2.5 2.5 0 0 1 2.5 -2.5 2.5 2.5 0 0 1 2.5 2.5z"/></svg>